<svg xmlns="http://www.w3.org/2000/svg" viewBox="0 0 2048 1024" role="img" aria-label="Stylized cartoon world map texture">
  <rect width="2048" height="1024" fill="#78c7d2"/>
  <path d="M0 270c44-32 96-48 154-47 49 1 88 14 119 38 28 22 54 27 87 14 38-14 81-13 130 5 42 16 70 40 83 72 12 31 4 61-24 91-29 31-43 61-42 91 2 39 25 75 68 109 39 31 60 66 62 104 2 44-19 79-63 106-47 29-98 34-153 17-43-14-80-40-111-79-25-32-54-52-86-61-43-11-91 3-144 43-33 24-60 34-80 30V270Z" fill="#f6efe3" stroke="#111111" stroke-width="12" stroke-linejoin="round"/>
  <path d="M318 206c51-46 113-72 186-78 76-6 146 11 209 52 43 28 83 38 121 30 31-7 64-7 98 0 69 14 117 49 144 105 25 51 21 101-12 150-31 46-70 73-118 83-40 8-66 24-78 47-11 21-7 51 11 90 21 45 19 88-5 128-27 43-69 64-127 63-56-1-103-23-141-66-37-43-79-71-126-85-55-16-102-10-142 19-44 32-88 36-132 13-45-23-69-62-73-116-3-47 13-86 48-119 31-29 39-59 24-91-16-35-15-73 3-114 20-45 57-83 110-111Z" fill="#f6efe3" stroke="#111111" stroke-width="12" stroke-linejoin="round"/>
  <path d="M708 690c34-16 73-18 116-7 49 13 84 40 105 81 18 35 17 69-3 101-23 37-61 56-114 58-51 2-91-12-120-41-30-30-39-67-25-111 8-27 22-54 41-81Z" fill="#edbd2c" stroke="#111111" stroke-width="10" stroke-linejoin="round"/>
  <path d="M1020 186c73-39 152-52 237-39 72 11 127 38 166 81 38 42 84 62 137 60 67-2 121 20 162 66 36 40 48 84 37 132-11 47-42 80-93 100-43 16-80 17-113 2-39-17-74-13-105 14-25 21-44 50-58 86-16 42-43 70-81 84-47 17-91 8-132-27-34-30-55-69-62-117-7-50-30-83-70-98-51-20-91-49-120-88-31-43-40-89-26-138 14-51 55-90 123-118Z" fill="#f6efe3" stroke="#111111" stroke-width="12" stroke-linejoin="round"/>
  <path d="M1355 540c41-20 88-19 141 4 40 17 67 44 80 81 13 36 7 70-17 102-29 38-44 79-44 124 0 39-13 70-38 92-30 26-68 30-114 12-42-16-71-46-88-90-17-45-19-93-6-144 8-34 5-69-10-105-15-34-4-60 32-78 20-10 41-9 64 2Z" fill="#edbd2c" stroke="#111111" stroke-width="10" stroke-linejoin="round"/>
  <path d="M1574 296c63-44 133-66 210-67 77 0 143 21 198 64 33 26 55 57 66 94v215c-34 26-76 38-126 37-57-1-105-19-145-53-37-32-75-43-113-33-38 9-73 1-105-24-35-27-51-63-49-109 2-50 23-91 64-124Z" fill="#f6efe3" stroke="#111111" stroke-width="12" stroke-linejoin="round"/>
  <path d="M1818 716c46-29 92-34 139-16 43 17 73 48 91 92v158c-42 22-89 31-141 26-65-7-111-34-139-81-27-46-21-89 18-130 9-10 20-20 32-29Z" fill="#edbd2c" stroke="#111111" stroke-width="10" stroke-linejoin="round"/>
  <path d="M116 156c37-22 81-30 131-23 40 5 71 21 94 48 21 24 24 51 9 80-17 33-50 49-99 49-53 0-94-15-124-46-30-30-34-66-11-108Z" fill="#edbd2c" stroke="#111111" stroke-width="10" stroke-linejoin="round"/>
  <path d="M1698 142c36-15 73-17 111-5 35 11 58 33 69 66 10 30 4 56-19 79-26 26-61 35-106 27-45-9-76-31-92-67-15-35-3-68 37-100Z" fill="#edbd2c" stroke="#111111" stroke-width="10" stroke-linejoin="round"/>
  <path d="M0 270c24-18 47-30 70-37v569c-28 5-51 6-70 1V270Z" fill="#f6efe3" stroke="#111111" stroke-width="12" stroke-linejoin="round"/>
  <path d="M2048 386c-9-32-27-60-54-84-30-27-64-46-102-58v725c60-3 112-19 156-48V386Z" fill="#f6efe3" stroke="#111111" stroke-width="12" stroke-linejoin="round"/>
</svg>
